<?xml version="1.0" standalone="no"?>
<!DOCTYPE svg PUBLIC "-//W3C//DTD SVG 20010904//EN"
 "http://www.w3.org/TR/2001/REC-SVG-20010904/DTD/svg10.dtd">
<svg version="1.0" xmlns="http://www.w3.org/2000/svg"
 width="200.000000pt" height="77.000000pt" viewBox="0 0 200.000000 77.000000"
 preserveAspectRatio="xMidYMid meet">

<g transform="translate(0.000000,77.000000) scale(0.100000,-0.100000)"
fill="#000000" stroke="none">
<path d="M90 450 l0 -260 370 0 370 0 0 260 0 260 -370 0 -370 0 0 -260z m366
237 c2 -7 3 -114 2 -237 l-3 -225 -31 85 c-17 47 -46 127 -64 178 l-32 92 -47
0 -47 0 -44 -127 c-86 -250 -79 -252 -80 15 l0 232 170 0 c129 0 172 -3 176
-13z m362 -199 l-3 -213 -75 0 -75 0 -3 153 -3 152 -39 0 -40 0 0 -190 0 -190
-55 0 -55 0 0 250 0 250 175 0 175 0 -2 -212z m-488 -140 c0 -4 -22 -8 -50 -8
-27 0 -50 2 -50 3 0 4 37 115 46 137 4 9 16 -12 30 -54 13 -39 24 -74 24 -78z
m39 -109 c6 -18 11 -34 11 -35 0 -2 -45 -4 -101 -4 -92 0 -101 2 -94 18 4 9
10 25 12 35 5 14 18 17 83 17 l78 0 11 -31z"/>
<path d="M981 418 c-19 -52 -22 -68 -12 -68 6 0 11 5 11 10 0 14 33 13 48 -2
15 -15 15 -6 0 43 -12 43 -34 51 -47 17z m29 -18 c0 -5 -5 -10 -11 -10 -5 0
-7 5 -4 10 3 6 8 10 11 10 2 0 4 -4 4 -10z"/>
<path d="M1492 398 c3 -40 5 -43 36 -46 18 -2 32 1 32 7 0 6 -11 11 -25 11
-22 0 -25 4 -25 35 0 19 -5 35 -11 35 -6 0 -9 -17 -7 -42z"/>
<path d="M1050 385 c0 -19 5 -35 10 -35 6 0 10 11 10 25 0 16 6 25 15 25 9 0
15 -10 15 -26 0 -14 4 -23 10 -19 6 3 10 15 10 26 0 10 5 19 10 19 6 0 10 -11
10 -25 0 -14 5 -25 11 -25 6 0 9 14 7 33 -3 31 -4 32 -55 35 l-53 2 0 -35z"/>
<path d="M1180 406 c-27 -33 18 -72 48 -42 13 13 14 20 6 34 -15 23 -38 26
-54 8z m40 -21 c0 -8 -7 -15 -15 -15 -8 0 -15 7 -15 15 0 8 7 15 15 15 8 0 15
-7 15 -15z"/>
<path d="M1250 385 c0 -19 5 -35 10 -35 6 0 10 11 10 25 0 14 5 25 10 25 6 0
10 5 10 10 0 6 -9 10 -20 10 -16 0 -20 -7 -20 -35z"/>
<path d="M1300 385 c0 -19 5 -35 10 -35 6 0 10 16 10 35 0 19 -4 35 -10 35 -5
0 -10 -16 -10 -35z"/>
<path d="M1330 385 c0 -19 5 -35 10 -35 6 0 10 11 10 25 0 36 30 33 31 -2 1
-28 1 -28 8 -4 9 34 31 39 31 7 0 -14 5 -26 11 -26 6 0 9 14 7 32 -3 32 -4 33
-55 35 l-53 3 0 -35z"/>
<path d="M1572 389 c2 -29 7 -35 31 -37 25 -3 27 -1 27 32 0 20 -4 36 -10 36
-5 0 -10 -11 -10 -25 0 -14 -4 -25 -10 -25 -5 0 -10 9 -10 19 0 11 -5 23 -11
26 -7 5 -9 -5 -7 -26z"/>
<path d="M1650 401 c5 -10 4 -24 -1 -34 -7 -11 -7 -17 0 -17 5 0 12 6 14 13 4
9 8 8 16 -3 5 -8 13 -11 17 -7 4 4 3 12 -4 19 -7 7 -8 17 -2 28 7 14 4 17 -20
17 -23 0 -27 -3 -20 -16z"/>
<path d="M1712 388 c2 -28 8 -34 31 -36 25 -3 27 -1 27 34 0 37 -9 42 -14 8
-4 -29 -26 -29 -26 0 0 14 -5 26 -11 26 -6 0 -9 -14 -7 -32z"/>
<path d="M1790 385 c0 -19 5 -35 10 -35 6 0 10 11 10 25 0 14 5 25 10 25 6 0
10 5 10 10 0 6 -9 10 -20 10 -16 0 -20 -7 -20 -35z"/>
<path d="M1840 416 c0 -1 5 -17 11 -35 8 -24 8 -35 -1 -46 -10 -12 -10 -15 3
-15 9 0 22 19 33 45 17 46 13 78 -5 34 l-10 -24 -7 23 c-5 18 -24 32 -24 18z"/>
<path d="M972 298 c-15 -15 -15 -51 0 -66 7 -7 27 -12 45 -12 29 0 33 3 33 25
0 18 -5 25 -20 25 -11 0 -20 -4 -20 -10 0 -5 6 -10 13 -10 8 0 8 -3 -2 -9 -21
-14 -41 -2 -41 24 0 26 22 39 39 22 13 -13 26 -3 16 12 -8 15 -48 14 -63 -1z"/>
<path d="M1060 255 c0 -19 5 -35 10 -35 6 0 10 11 10 25 0 14 5 25 10 25 6 0
10 5 10 10 0 6 -9 10 -20 10 -16 0 -20 -7 -20 -35z"/>
<path d="M1122 281 c-8 -4 -12 -19 -10 -32 2 -18 9 -24 28 -24 19 0 26 6 28
24 3 20 -11 41 -28 41 -3 0 -11 -4 -18 -9z m32 -20 c3 -5 -1 -14 -8 -20 -16
-13 -32 2 -21 19 8 12 22 13 29 1z"/>
<path d="M1191 258 c-1 -36 1 -38 29 -38 27 0 30 3 30 29 0 39 -18 50 -22 14
-4 -37 -21 -36 -29 2 -6 29 -7 29 -8 -7z"/>
<path d="M1260 239 c0 -27 5 -49 10 -49 6 0 10 6 10 14 0 8 10 16 23 18 16 2
23 11 25 31 2 15 0 28 -5 28 -66 9 -63 12 -63 -42z m48 14 c-4 -22 -22 -20
-26 1 -2 10 3 16 13 16 10 0 15 -7 13 -17z"/>
</g>
</svg>
